{"scene":0,"asset":{"generator":"ImageToStl.com","version":"2.0"},"scenes":[{"name":"Scene","nodes":[0]}],"nodes":[{"name":"Node0","children":[1]},{"name":"Node1","mesh":0}],"materials":[{"name":"Material #35","pbrMetallicRoughness":{"baseColorFactor":[0.58431375,0.58431375,0.58431375,1.0],"metallicFactor":0.0,"roughnessFactor":1.0},"doubleSided":true},{"name":"Material #36","pbrMetallicRoughness":{"baseColorFactor":[0.58431375,0.58431375,0.58431375,1.0],"metallicFactor":0.0,"roughnessFactor":1.0},"doubleSided":true},{"name":"Material #37","pbrMetallicRoughness":{"baseColorFactor":[0.58431375,0.58431375,0.58431375,1.0],"metallicFactor":0.0,"roughnessFactor":1.0},"doubleSided":true},{"name":"Material #38","pbrMetallicRoughness":{"baseColorFactor":[0.58431375,0.58431375,0.58431375,1.0],"metallicFactor":0.0,"roughnessFactor":1.0},"doubleSided":true},{"name":"Material #39","pbrMetallicRoughness":{"baseColorFactor":[0.58431375,0.58431375,0.58431375,1.0],"metallicFactor":0.0,"roughnessFactor":1.0},"doubleSided":true},{"name":"Material #40","pbrMetallicRoughness":{"baseColorFactor":[0.58431375,0.58431375,0.58431375,1.0],"metallicFactor":0.0,"roughnessFactor":1.0},"doubleSided":true},{"name":"Material #41","pbrMetallicRoughness":{"baseColorFactor":[0.58431375,0.58431375,0.58431375,1.0],"metallicFactor":0.0,"roughnessFactor":1.0},"doubleSided":true},{"name":"Material #42","pbrMetallicRoughness":{"baseColorFactor":[0.58431375,0.58431375,0.58431375,1.0],"metallicFactor":0.0,"roughnessFactor":1.0},"doubleSided":true},{"name":"Material #43","pbrMetallicRoughness":{"baseColorFactor":[0.58431375,0.58431375,0.58431375,1.0],"metallicFactor":0.0,"roughnessFactor":1.0},"doubleSided":true},{"name":"Material #44","pbrMetallicRoughness":{"baseColorFactor":[0.58431375,0.58431375,0.58431375,1.0],"metallicFactor":0.0,"roughnessFactor":1.0},"doubleSided":true}],"meshes":[{"name":"Mesh0","primitives":[{"indices":1,"material":0,"attributes":{"POSITION":0}},{"indices":2,"material":1,"attributes":{"POSITION":0}},{"indices":3,"material":2,"attributes":{"POSITION":0}}]}],"accessors":[{"bufferView":0,"componentType":5126,"count":24,"type":"VEC3","min":[-200.0,-400.0,-1.3204651],"max":[200.0,400.0,598.67957]},{"bufferView":1,"componentType":5123,"count":114,"type":"SCALAR"},{"bufferView":2,"componentType":5123,"count":6,"type":"SCALAR"},{"bufferView":3,"componentType":5123,"count":12,"type":"SCALAR"}],"bufferViews":[{"target":34962,"buffer":0,"byteLength":288,"byteOffset":0},{"target":34963,"buffer":0,"byteLength":228,"byteOffset":288},{"target":34963,"buffer":0,"byteLength":12,"byteOffset":516},{"target":34963,"buffer":0,"byteLength":24,"byteOffset":528}],"buffers":[{"byteLength":552,"uri":"data:application/octet-stream;base64,"}]}